HIERARCHY
ROOT Hips
{
	OFFSET 0.0000 0.0000 0.0000
	CHANNELS 6 Xposition Yposition Zposition Zrotation Xrotation Yrotation
	JOINT Ab
	{
		OFFSET -0.0000 8.0846 -0.0000
		CHANNELS 3 Zrotation Xrotation Yrotation
		JOINT Chest
		{
			OFFSET -0.0000 25.0068 -0.0000
			CHANNELS 3 Zrotation Xrotation Yrotation
			JOINT Neck
			{
				OFFSET -0.0000 25.0068 0.0000
				CHANNELS 3 Zrotation Xrotation Yrotation
				JOINT Head
				{
					OFFSET -0.0000 10.7556 0.0000
					CHANNELS 3 Zrotation Xrotation Yrotation
					End Site
					{
						OFFSET -0.0000 16.6222 0.0000
					}
				}
			}
			JOINT LeftCollar
			{
				OFFSET -0.0000 25.0068 0.0000
				CHANNELS 3 Zrotation Xrotation Yrotation
				JOINT LeftShoulder
				{
					OFFSET 19.5556 -0.0000 0.0000
					CHANNELS 3 Zrotation Xrotation Yrotation
					JOINT LeftElbow
					{
						OFFSET 27.1828 0.0000 0.0000
						CHANNELS 3 Zrotation Xrotation Yrotation
						JOINT LeftWrist
						{
							OFFSET 23.3157 0.0000 0.0000
							CHANNELS 3 Zrotation Xrotation Yrotation
							End Site
							{
								OFFSET 0.0000 -14.6667 0.0000
							}
						}
					}
				}
			}
			JOINT RightCollar
			{
				OFFSET -0.0000 25.0068 0.0000
				CHANNELS 3 Zrotation Xrotation Yrotation
				JOINT RightShoulder
				{
					OFFSET -19.5556 0.0000 0.0000
					CHANNELS 3 Zrotation Xrotation Yrotation
					JOINT RightElbow
					{
						OFFSET -27.1828 0.0000 0.0000
						CHANNELS 3 Zrotation Xrotation Yrotation
						JOINT RightWrist
						{
							OFFSET -23.3157 0.0000 0.0000
							CHANNELS 3 Zrotation Xrotation Yrotation
							End Site
							{
								OFFSET -0.0000 -14.6667 0.0000
							}
						}
					}
				}
			}
		}
	}
	JOINT LeftHip
	{
		OFFSET 11.7333 0.0000 0.0000
		CHANNELS 3 Zrotation Xrotation Yrotation
		JOINT LeftKnee
		{
			OFFSET -0.0000 -40.8688 0.0000
			CHANNELS 3 Zrotation Xrotation Yrotation
			JOINT LeftAnkle
			{
				OFFSET -0.0000 -44.4337 0.0000
				CHANNELS 3 Zrotation Xrotation Yrotation
				End Site
				{
					OFFSET -0.0000 -4.8889 16.6222
				}
			}
		}
	}
	JOINT RightHip
	{
		OFFSET -11.7333 0.0000 0.0000
		CHANNELS 3 Zrotation Xrotation Yrotation
		JOINT RightKnee
		{
			OFFSET -0.0000 -40.8688 0.0000
			CHANNELS 3 Zrotation Xrotation Yrotation
			JOINT RightAnkle
			{
				OFFSET -0.0000 -44.4337 0.0000
				CHANNELS 3 Zrotation Xrotation Yrotation
				End Site
				{
					OFFSET -0.0000 -4.8889 16.6222
				}
			}
		}
	}
}
MOTION
Frames: 10
Frame Time: 0.010000
1.4828 83.9729 99.3578 1.1406 355.2661 172.5190 1.1268 5.2192 3.8691 353.0074 8.3493 4.4238 4.4721 334.7788 0.7551 359.7009 2.0585 359.7372 341.3601 357.8968 12.8440 294.1721 18.9382 10.0943 21.2754 353.0375 325.5656 83.9097 359.9538 341.8920 19.8899 359.2395 355.7409 25.9318 46.4266 42.8022 327.8188 347.5201 41.9166 272.3341 349.4871 12.5700 5.4398 330.0177 357.1909 354.9413 21.8133 0.9489 357.8285 352.4452 23.3906 359.6684 359.5247 0.5935 357.0188 36.1566 14.3291 0.6807 337.7971 341.1507 
1.2447 83.8090 97.9027 0.8322 355.3033 172.2582 0.7208 5.0847 3.9346 352.8277 8.2906 4.4801 4.7396 334.5141 0.5797 359.6387 2.4965 359.5013 341.4465 358.0081 11.4558 294.9318 12.8710 11.3884 18.0008 354.5374 323.8520 84.9021 1.1103 337.4415 20.0383 359.1904 355.3860 26.2969 46.2783 42.3683 328.2028 347.6387 42.2044 272.2216 349.7212 12.8050 4.8592 330.0054 357.3400 355.0209 23.2628 0.9439 357.3765 352.8979 23.2440 359.1927 359.0907 0.4490 356.2401 38.3624 15.5626 2.6590 337.8676 341.4864 
1.0475 83.7156 96.4731 0.6325 355.4626 172.1195 0.4382 4.9933 3.9249 352.6403 8.4606 4.4812 4.8140 334.3582 0.5320 0.0749 2.5203 359.4260 341.4355 358.0836 11.1408 295.0630 11.8110 11.5101 17.4737 354.4976 323.7563 85.1807 1.2789 336.1350 20.0902 359.1559 355.1177 26.6424 46.5534 42.0614 328.2493 347.5710 42.2344 271.8314 349.8206 12.7251 4.6007 330.2398 356.8189 354.4218 24.5592 1.4883 357.6837 353.1622 22.9022 358.9477 358.6517 0.6342 355.7757 40.6915 15.1768 3.5318 339.2832 342.3383 
0.8622 83.6912 95.0972 0.4208 355.5683 172.1237 0.1139 4.9947 3.8734 352.5221 8.3918 4.4197 4.9010 334.4165 0.4504 0.3326 2.4076 359.3176 341.2857 358.1339 10.6830 295.4078 10.9178 11.6392 17.0288 354.5643 323.7123 85.3729 1.5454 335.1945 20.1972 359.1183 355.0653 27.8367 46.6481 40.9193 328.3571 347.6089 42.2569 271.8368 349.7219 12.9749 4.4104 330.3690 356.4118 353.4799 25.9501 1.7261 357.5119 352.9122 23.1615 358.7534 357.8985 1.0314 355.8195 43.3861 13.8358 1.8478 342.5369 342.3384 
0.6741 83.7067 93.6999 0.2007 355.7413 172.1997 359.8355 4.9942 3.7933 352.3782 8.4160 4.3394 4.8584 334.3746 0.2722 0.6155 2.4970 359.1380 341.1809 358.2078 10.1352 295.7919 9.9673 11.6911 16.5168 354.7118 323.6382 85.4203 1.8230 334.1120 20.2193 359.1165 355.0952 29.7054 46.5930 39.2064 328.6105 347.6969 42.3954 271.5725 349.4391 13.2117 4.0780 330.6743 356.5598 352.9072 27.2469 1.3641 357.6244 352.7868 23.2980 358.4908 357.0486 1.5251 356.4260 46.2186 11.0563 2.5519 344.1294 343.6010 
0.4929 83.7693 92.3291 0.0101 355.9358 172.3716 359.6845 5.0553 3.6256 352.1206 8.4255 4.1843 5.0222 334.2732 0.2453 0.6549 2.7620 359.0732 341.1748 358.2910 9.6540 296.0588 9.6582 11.5073 16.3325 354.7069 323.7891 85.1233 2.1760 333.3313 20.2561 359.1167 355.1499 31.8556 46.4093 37.2706 329.0846 347.9026 42.5209 270.9837 349.3565 13.4510 3.6908 331.1341 356.9690 352.6313 28.2913 1.1264 357.6040 352.6891 23.0292 358.2285 356.0519 1.8929 357.2118 49.2009 7.9648 2.4592 346.7454 344.9746 
0.3191 83.8582 90.9701 359.8732 356.1595 172.5797 359.5531 5.1846 3.4154 352.0083 8.2928 3.9682 5.0802 334.4191 0.2429 0.7084 2.9723 359.0685 341.1226 358.3747 9.0433 296.3995 8.8509 11.4873 15.8421 354.8769 323.6026 85.0202 2.5822 332.3134 20.2253 359.1550 355.3686 34.3205 46.1910 34.8856 329.6516 348.1259 42.7149 270.4356 349.4443 13.7214 3.3951 331.8452 357.2482 352.2967 28.9275 1.3765 357.6342 352.5052 22.6029 358.0239 354.9755 2.0317 357.9305 52.1312 4.6789 2.7883 349.5517 346.4692 
0.1401 83.9621 89.6211 359.7449 356.3353 172.7471 359.6389 5.1496 3.0938 351.7035 8.3402 3.6768 5.0299 334.5862 0.2984 0.9359 3.1819 359.1460 341.2127 358.4666 8.5219 296.6274 7.6855 11.3252 15.1921 355.1365 323.2373 85.0027 3.0810 331.0765 20.2962 359.1927 355.6561 36.5718 45.6746 32.7088 330.5941 348.5415 42.9443 269.9275 349.8479 13.9345 3.2051 332.6763 357.7252 351.9970 29.2934 1.3302 357.4891 351.9729 22.2697 357.8200 353.7065 2.0011 358.2829 55.1839 2.6002 3.5421 352.0634 347.5742 
0.0286 84.0619 88.1813 359.6752 356.8822 173.0113 359.5183 5.3667 2.7490 351.7247 8.4936 3.3356 4.9919 334.7667 0.4167 1.0760 3.3680 359.2856 341.1643 358.5332 8.1837 296.8470 7.2881 10.8289 14.9565 355.1346 322.8660 84.8626 3.6782 330.2196 20.3467 359.2289 355.8689 38.4837 45.2706 30.8391 331.5903 348.9900 42.8199 269.4805 350.0875 14.1952 3.0238 334.0521 358.3481 351.7800 29.4879 0.8803 358.1075 351.6138 21.9930 357.6793 352.8984 2.2046 359.0736 58.0429 0.8222 1.4846 353.9788 347.8508 
-0.1433 84.1803 86.8741 359.4749 356.9211 173.1694 359.3652 5.2454 2.4360 351.7765 8.3998 3.0087 4.8926 335.0362 0.5797 1.2682 3.5159 359.4435 341.0243 358.5462 8.0830 297.0544 8.0755 9.9544 15.3169 354.8839 322.8927 84.5201 3.9082 330.1257 20.4193 359.2498 355.9624 39.9595 45.0987 29.3346 332.5594 349.4661 42.4124 269.1554 350.1598 14.5440 2.6443 334.7985 359.0632 351.8867 29.8309 0.4509 358.5432 351.0655 21.6161 357.4107 351.3627 2.2440 359.7122 60.7979 359.4656 0.0402 355.4318 348.0628 
